<?xml version="1.0" encoding="UTF-8"?>
<!-- Generator: Adobe Illustrator 16.0.4, SVG Export Plug-In . SVG Version: 6.00 Build 0)  -->
<!DOCTYPE svg PUBLIC "-//W3C//DTD SVG 1.1//EN" "http://www.w3.org/Graphics/SVG/1.1/DTD/svg11.dtd">
<svg version="1.1" id="Layer_1" xmlns="http://www.w3.org/2000/svg" xmlns:xlink="http://www.w3.org/1999/xlink" x="0px" y="0px" width="95px" height="70px" viewBox="53.326 0 95 70" enable-background="new 53.326 0 95 70" xml:space="preserve">
<g>
	<g>
		<g>
			<path d="M62.498,52.061l1.817-5.893h2.382l1.801,5.893l2.031-5.893h2.473l-3.572,10.244h-1.695l-2.244-7.131l-2.229,7.131h-1.695     l-3.573-10.244h2.474L62.498,52.061z"/>
			<path d="M74.238,46.168h2.29v10.244h-2.29V46.168z"/>
			<path d="M79.047,46.168h2.29v4.213l3.863-4.213h2.824l-4.076,4.533c0.351,0.488,1.007,1.404,1.954,2.732     c0.946,1.328,1.649,2.322,2.122,2.979h-2.672l-2.992-4.047l-1.023,1.145v2.902h-2.29V46.168z"/>
			<path d="M89.444,46.168h2.29v10.244h-2.29V46.168z"/>
			<path d="M103.43,49.969l-2.764,5.604h-1.375l-2.748-5.604v6.443h-2.29V46.168h3.099l2.641,5.633l2.657-5.633h3.084v10.244h-2.291     v-6.443H103.43z"/>
			<path d="M115.627,46.168v2.029h-5.1v2.107h4.58v1.955h-4.58v2.121h5.252v2.016h-7.541V46.152h7.389V46.168z"/>
			<path d="M125.643,47.51c0.977,0.902,1.465,2.139,1.465,3.727s-0.473,2.855-1.434,3.785c-0.947,0.932-2.412,1.391-4.367,1.391     h-3.496V46.168h3.619C123.275,46.168,124.666,46.625,125.643,47.51z M123.963,53.602c0.564-0.533,0.84-1.297,0.84-2.305     s-0.275-1.787-0.84-2.32c-0.564-0.551-1.42-0.809-2.58-0.809H120.1v6.229h1.451C122.604,54.396,123.414,54.137,123.963,53.602z"/>
			<path d="M129.094,46.168h2.289v10.244h-2.289V46.168z"/>
			<path d="M141.199,56.412l-0.945-2.215h-4.291l-0.947,2.215h-2.426l4.426-10.244h2.215l4.428,10.244H141.199z M138.1,49.221     l-1.281,2.977h2.564L138.1,49.221z"/>
		</g>
		<g>
			<path d="M71.29,66.154l-0.372-0.898h-2.052l-0.372,0.898H67.66l1.842-4.242h0.834l1.818,4.242H71.29z M69.154,64.561h1.476     l-0.732-1.783L69.154,64.561z"/>
			<path d="M77.512,65.195c0.188,0.191,0.44,0.285,0.756,0.285s0.565-0.094,0.747-0.285c0.182-0.189,0.273-0.451,0.273-0.787v-2.496     h0.804v2.496c0,0.367-0.074,0.688-0.222,0.961c-0.148,0.271-0.359,0.48-0.633,0.627c-0.274,0.145-0.597,0.219-0.969,0.219     c-0.376,0-0.703-0.074-0.981-0.219c-0.278-0.146-0.491-0.355-0.639-0.627c-0.148-0.273-0.222-0.594-0.222-0.961v-2.496h0.804     v2.496C77.23,64.744,77.324,65.006,77.512,65.195z"/>
			<path d="M86.977,62.693c-0.226-0.072-0.425-0.109-0.597-0.109c-0.192,0-0.344,0.037-0.456,0.109s-0.168,0.174-0.168,0.303     c0,0.117,0.039,0.215,0.117,0.295c0.078,0.078,0.176,0.143,0.294,0.193c0.118,0.051,0.279,0.105,0.483,0.166     c0.284,0.086,0.517,0.17,0.699,0.256c0.182,0.084,0.337,0.209,0.465,0.375s0.192,0.383,0.192,0.654     c0,0.258-0.069,0.484-0.207,0.676s-0.328,0.338-0.57,0.439c-0.242,0.102-0.519,0.15-0.831,0.15c-0.328,0-0.648-0.061-0.96-0.184     s-0.584-0.289-0.816-0.494l0.336-0.691c0.212,0.199,0.45,0.354,0.714,0.467s0.51,0.17,0.738,0.17c0.224,0,0.4-0.043,0.528-0.131     c0.128-0.086,0.192-0.205,0.192-0.354c0-0.121-0.039-0.221-0.117-0.301c-0.078-0.078-0.177-0.143-0.297-0.191     c-0.12-0.047-0.284-0.102-0.492-0.162c-0.284-0.086-0.516-0.168-0.696-0.25c-0.18-0.08-0.334-0.201-0.462-0.365     s-0.192-0.379-0.192-0.646c0-0.246,0.065-0.461,0.195-0.645s0.314-0.326,0.552-0.428c0.238-0.102,0.513-0.15,0.825-0.15     c0.272,0,0.541,0.039,0.807,0.121c0.266,0.08,0.503,0.189,0.711,0.326l-0.324,0.709C87.424,62.869,87.203,62.766,86.977,62.693z"/>
			<path d="M92.26,61.912h3.426v0.721h-1.308v3.521h-0.81v-3.521H92.26V61.912z"/>
			<path d="M102.844,66.154l-0.727-1.256c-0.031,0.004-0.082,0.006-0.15,0.006h-0.947v1.25h-0.804v-4.242h1.751     c0.545,0,0.965,0.127,1.26,0.381c0.297,0.256,0.445,0.615,0.445,1.078c0,0.332-0.072,0.615-0.213,0.85     c-0.143,0.234-0.35,0.41-0.621,0.527l0.924,1.406H102.844z M101.02,64.189h0.947c0.305,0,0.537-0.066,0.697-0.199     s0.24-0.332,0.24-0.594c0-0.258-0.08-0.453-0.24-0.582s-0.393-0.193-0.697-0.193h-0.947V64.189z"/>
			<path d="M111.621,66.154l-0.371-0.898h-2.053l-0.371,0.898h-0.834l1.842-4.242h0.834l1.816,4.242H111.621z M109.484,64.561h1.477     l-0.732-1.783L109.484,64.561z"/>
			<path d="M116.955,61.912h0.805v3.508h1.811v0.734h-2.615V61.912z"/>
			<path d="M124.162,61.912h0.803v4.242h-0.803V61.912z"/>
			<path d="M133.066,66.154l-0.373-0.898h-2.051l-0.373,0.898h-0.834l1.842-4.242h0.834l1.818,4.242H133.066z M130.93,64.561h1.477     l-0.732-1.783L130.93,64.561z"/>
		</g>
	</g>
	<g>
		<path fill="#289F6E" d="M102.391,33.435c5.48-0.779,9.695-5.481,9.695-11.191c0-3.465-1.559-6.565-4.016-8.626l-5.695,5.695    v14.122H102.391z"/>
		<path fill="#289F6E" d="M99.2,33.435V19.312l-5.695-5.695c-2.458,2.077-4.015,5.176-4.015,8.626    C89.505,27.938,93.719,32.656,99.2,33.435z"/>
		<path fill="#00679A" d="M110.619,12.427c2.627,2.626,4.062,6.107,4.062,9.817s-1.451,7.191-4.062,9.817    c-2.625,2.626-6.105,4.061-9.816,4.061c-3.709,0-7.19-1.45-9.816-4.061s-4.061-6.107-4.061-9.817s1.45-7.191,4.061-9.816    c0.229-0.229,0.458-0.443,0.687-0.642L88.498,8.61c-0.229,0.213-0.458,0.427-0.687,0.656c-1.679,1.68-3.007,3.649-3.939,5.832    c-0.961,2.26-1.45,4.672-1.45,7.145c0,2.474,0.489,4.886,1.45,7.145c0.932,2.183,2.245,4.153,3.939,5.832    c1.68,1.68,3.649,3.008,5.832,3.939c2.26,0.961,4.672,1.449,7.145,1.449c2.475,0,4.887-0.488,7.145-1.449    c2.184-0.932,4.154-2.244,5.834-3.939c1.678-1.679,3.006-3.649,3.938-5.832c0.963-2.259,1.451-4.671,1.451-7.145    c0-2.473-0.488-4.885-1.451-7.145c-0.932-2.183-2.244-4.152-3.938-5.832c-0.23-0.229-0.459-0.443-0.688-0.656l-3.176,3.175    C110.162,11.984,110.391,12.198,110.619,12.427z"/>
		<circle id="red_circle_1_" fill="#971B1E" cx="100.803" cy="9.511" r="5.725"/>
	</g>
</g>
</svg>