<?xml version="1.0" encoding="UTF-8" standalone="no"?>
<svg
   xmlns:dc="http://purl.org/dc/elements/1.1/"
   xmlns:cc="http://creativecommons.org/ns#"
   xmlns:rdf="http://www.w3.org/1999/02/22-rdf-syntax-ns#"
   xmlns:svg="http://www.w3.org/2000/svg"
   xmlns="http://www.w3.org/2000/svg"
   xmlns:sodipodi="http://sodipodi.sourceforge.net/DTD/sodipodi-0.dtd"
   xmlns:inkscape="http://www.inkscape.org/namespaces/inkscape"
   width="48.97327"
   height="49.080795"
   version="1.1"
   viewBox="0 0 12.957289 12.986054"
   id="svg12"
   sodipodi:docname="logo-black-small.svg"
   inkscape:version="1.0.2 (1.0.2+r75+1)">
  <metadata
     id="metadata10">
    <rdf:RDF>
      <cc:Work
         rdf:about="">
        <dc:format>image/svg+xml</dc:format>
        <dc:type
           rdf:resource="http://purl.org/dc/dcmitype/StillImage" />
        <dc:title></dc:title>
      </cc:Work>
    </rdf:RDF>
  </metadata>
  <defs
     id="defs16" />
  <sodipodi:namedview
     pagecolor="#ffffff"
     bordercolor="#666666"
     borderopacity="1"
     objecttolerance="10"
     gridtolerance="10"
     guidetolerance="10"
     inkscape:pageopacity="0"
     inkscape:pageshadow="2"
     inkscape:window-width="1868"
     inkscape:window-height="1051"
     id="namedview14"
     showgrid="false"
     inkscape:zoom="17.725874"
     inkscape:cx="24.486635"
     inkscape:cy="24.540398"
     inkscape:window-x="52"
     inkscape:window-y="0"
     inkscape:window-maximized="1"
     inkscape:current-layer="svg12"
     inkscape:document-rotation="0"
     fit-margin-left="2"
     lock-margins="true"
     fit-margin-top="2"
     fit-margin-right="2"
     fit-margin-bottom="2" />
  <g
     id="g851"
     transform="matrix(0.68636072,0,0,0.68636072,-0.01567589,-0.01566272)">
    <path
       d="m 10.21822,14.7868 c 2.5863,-0.36765 4.5756,-2.5868 4.5756,-5.2817 0,-1.6353 -0.73578,-3.0984 -1.8954,-4.0711 l -2.6878,2.6878 v 6.665 z"
       id="path2"
       style="fill:#767676;fill-opacity:1;stroke-width:0.47196" />
    <path
       d="M 8.71222,14.7868 V 8.1214 L 6.02442,5.4336 c -1.1601,0.98025 -1.8949,2.4428 -1.8949,4.0711 0.00708,2.6878 1.9959,4.9145 4.5827,5.2821 z"
       id="path4"
       style="fill:#767676;fill-opacity:1;stroke-width:0.47196" />
    <path
       d="m 14.10122,4.87194 c 1.2398,1.2394 1.9171,2.8822 1.9171,4.6332 0,1.751 -0.68481,3.3938 -1.9171,4.6332 -1.2389,1.2394 -2.8813,1.9166 -4.6327,1.9166 -1.7505,0 -3.3934,-0.68434 -4.6327,-1.9166 -1.2394,-1.2323 -1.9166,-2.8822 -1.9166,-4.6332 0,-1.751 0.68434,-3.3938 1.9166,-4.6327 0.10808,-0.10808 0.21616,-0.20908 0.32423,-0.303 l -1.4989,-1.4989 c -0.10808,0.10053 -0.21616,0.20153 -0.32423,0.3096 -0.79241,0.79289 -1.4192,1.7222 -1.859,2.7524 -0.45355,1.0666 -0.68434,2.205 -0.68434,3.3721 0,1.1676 0.23079,2.306 0.68434,3.3721 0.43986,1.0303 1.0595,1.96 1.859,2.7524 0.79289,0.79289 1.7222,1.4196 2.7524,1.859 1.0666,0.45355 2.205,0.68386 3.3721,0.68386 1.1681,0 2.3064,-0.23032 3.3721,-0.68386 1.0308,-0.43986 1.9605,-1.0591 2.7534,-1.859 0.79194,-0.79241 1.4187,-1.7222 1.8586,-2.7524 0.45449,-1.0661 0.68481,-2.2045 0.68481,-3.3721 0,-1.1671 -0.23032,-2.3055 -0.68481,-3.3721 -0.43986,-1.0303 -1.0591,-1.9596 -1.8586,-2.7524 -0.10855,-0.10808 -0.21663,-0.20908 -0.32471,-0.3096 l -1.4989,1.4985 c 0.12224,0.093919 0.23032,0.19492 0.33792,0.303 z"
       id="path6"
       style="fill:#767676;fill-opacity:1;stroke-width:0.47196" />
    <circle
       cx="9.4688206"
       cy="3.4957001"
       r="2.7019"
       id="circle8"
       style="fill:#767676;fill-opacity:1;stroke-width:0.47196" />
  </g>
</svg>
