<?xml version="1.0" encoding="UTF-8"?>
<svg width="243.48" height="75.313" enable-background="new 53.326 0 95 70" version="1.1" viewBox="53.326 0 243.48 75.313" xml:space="preserve" xmlns="http://www.w3.org/2000/svg">
	
<g transform="matrix(1.8281 0 0 1.8281 -43.813 .34388)"><g transform="translate(40.481 -35.772)">
		
			<path d="m62.498 52.061 1.817-5.893h2.382l1.801 5.893 2.031-5.893h2.473l-3.572 10.244h-1.695l-2.244-7.131-2.229 7.131h-1.695l-3.573-10.244h2.474z"/>
			<path d="m74.238 46.168h2.29v10.244h-2.29z"/>
			<path d="m79.047 46.168h2.29v4.213l3.863-4.213h2.824l-4.076 4.533c0.351 0.488 1.007 1.404 1.954 2.732 0.946 1.328 1.649 2.322 2.122 2.979h-2.672l-2.992-4.047-1.023 1.145v2.902h-2.29z"/>
			<path d="m89.444 46.168h2.29v10.244h-2.29z"/>
			<path d="m103.43 49.969-2.764 5.604h-1.375l-2.748-5.604v6.443h-2.29v-10.244h3.099l2.641 5.633 2.657-5.633h3.084v10.244h-2.291v-6.443z"/>
			<path d="m115.63 46.168v2.029h-5.1v2.107h4.58v1.955h-4.58v2.121h5.252v2.016h-7.541v-10.244h7.389z"/>
			<path d="m125.64 47.51c0.977 0.902 1.465 2.139 1.465 3.727s-0.473 2.855-1.434 3.785c-0.947 0.932-2.412 1.391-4.367 1.391h-3.496v-10.245h3.619c1.845 0 3.236 0.457 4.213 1.342zm-1.68 6.092c0.564-0.533 0.84-1.297 0.84-2.305s-0.275-1.787-0.84-2.32c-0.564-0.551-1.42-0.809-2.58-0.809h-1.283v6.229h1.451c1.053-1e-3 1.863-0.26 2.412-0.795z"/>
			<path d="m129.09 46.168h2.289v10.244h-2.289z"/>
			<path d="m141.2 56.412-0.945-2.215h-4.291l-0.947 2.215h-2.426l4.426-10.244h2.215l4.428 10.244zm-3.099-7.191-1.281 2.977h2.564z"/>
		
		
			<path d="m71.29 66.154-0.372-0.898h-2.052l-0.372 0.898h-0.834l1.842-4.242h0.834l1.818 4.242zm-2.136-1.593h1.476l-0.732-1.783z"/>
			<path d="m77.512 65.195c0.188 0.191 0.44 0.285 0.756 0.285s0.565-0.094 0.747-0.285c0.182-0.189 0.273-0.451 0.273-0.787v-2.496h0.804v2.496c0 0.367-0.074 0.688-0.222 0.961-0.148 0.271-0.359 0.48-0.633 0.627-0.274 0.145-0.597 0.219-0.969 0.219-0.376 0-0.703-0.074-0.981-0.219-0.278-0.146-0.491-0.355-0.639-0.627-0.148-0.273-0.222-0.594-0.222-0.961v-2.496h0.804v2.496c0 0.336 0.094 0.598 0.282 0.787z"/>
			<path d="m86.977 62.693c-0.226-0.072-0.425-0.109-0.597-0.109-0.192 0-0.344 0.037-0.456 0.109s-0.168 0.174-0.168 0.303c0 0.117 0.039 0.215 0.117 0.295 0.078 0.078 0.176 0.143 0.294 0.193 0.118 0.051 0.279 0.105 0.483 0.166 0.284 0.086 0.517 0.17 0.699 0.256 0.182 0.084 0.337 0.209 0.465 0.375s0.192 0.383 0.192 0.654c0 0.258-0.069 0.484-0.207 0.676s-0.328 0.338-0.57 0.439c-0.242 0.102-0.519 0.15-0.831 0.15-0.328 0-0.648-0.061-0.96-0.184s-0.584-0.289-0.816-0.494l0.336-0.691c0.212 0.199 0.45 0.354 0.714 0.467s0.51 0.17 0.738 0.17c0.224 0 0.4-0.043 0.528-0.131 0.128-0.086 0.192-0.205 0.192-0.354 0-0.121-0.039-0.221-0.117-0.301-0.078-0.078-0.177-0.143-0.297-0.191-0.12-0.047-0.284-0.102-0.492-0.162-0.284-0.086-0.516-0.168-0.696-0.25-0.18-0.08-0.334-0.201-0.462-0.365s-0.192-0.379-0.192-0.646c0-0.246 0.065-0.461 0.195-0.645s0.314-0.326 0.552-0.428 0.513-0.15 0.825-0.15c0.272 0 0.541 0.039 0.807 0.121 0.266 0.08 0.503 0.189 0.711 0.326l-0.324 0.709c-0.216-0.132-0.437-0.235-0.663-0.308z"/>
			<path d="m92.26 61.912h3.426v0.721h-1.308v3.521h-0.81v-3.521h-1.308z"/>
			<path d="m102.84 66.154-0.727-1.256c-0.031 4e-3 -0.082 6e-3 -0.15 6e-3h-0.947v1.25h-0.804v-4.242h1.751c0.545 0 0.965 0.127 1.26 0.381 0.297 0.256 0.445 0.615 0.445 1.078 0 0.332-0.072 0.615-0.213 0.85-0.143 0.234-0.35 0.41-0.621 0.527l0.924 1.406zm-1.824-1.965h0.947c0.305 0 0.537-0.066 0.697-0.199s0.24-0.332 0.24-0.594c0-0.258-0.08-0.453-0.24-0.582s-0.393-0.193-0.697-0.193h-0.947z"/>
			<path d="m111.62 66.154-0.371-0.898h-2.053l-0.371 0.898h-0.834l1.842-4.242h0.834l1.816 4.242zm-2.137-1.593h1.477l-0.732-1.783z"/>
			<path d="m116.96 61.912h0.805v3.508h1.811v0.734h-2.615v-4.242z"/>
			<path d="m124.16 61.912h0.803v4.242h-0.803z"/>
			<path d="m133.07 66.154-0.373-0.898h-2.051l-0.373 0.898h-0.834l1.842-4.242h0.834l1.818 4.242zm-2.136-1.593h1.477l-0.732-1.783z"/>
		
	</g><g transform="translate(-27.096 -1.786)">
		<path d="m102.39 33.435c5.48-0.779 9.695-5.481 9.695-11.191 0-3.465-1.559-6.565-4.016-8.626l-5.695 5.695v14.122z" fill="#289f6e"/>
		<path d="m99.2 33.435v-14.123l-5.695-5.695c-2.458 2.077-4.015 5.176-4.015 8.626 0.015 5.695 4.229 10.413 9.71 11.192z" fill="#289f6e"/>
		<path d="m110.62 12.427c2.627 2.626 4.062 6.107 4.062 9.817s-1.451 7.191-4.062 9.817c-2.625 2.626-6.105 4.061-9.816 4.061-3.709 0-7.19-1.45-9.816-4.061s-4.061-6.107-4.061-9.817 1.45-7.191 4.061-9.816c0.229-0.229 0.458-0.443 0.687-0.642l-3.176-3.176c-0.229 0.213-0.458 0.427-0.687 0.656-1.679 1.68-3.007 3.649-3.939 5.832-0.961 2.26-1.45 4.672-1.45 7.145 0 2.474 0.489 4.886 1.45 7.145 0.932 2.183 2.245 4.153 3.939 5.832 1.68 1.68 3.649 3.008 5.832 3.939 2.26 0.961 4.672 1.449 7.145 1.449 2.475 0 4.887-0.488 7.145-1.449 2.184-0.932 4.154-2.244 5.834-3.939 1.678-1.679 3.006-3.649 3.938-5.832 0.963-2.259 1.451-4.671 1.451-7.145 0-2.473-0.488-4.885-1.451-7.145-0.932-2.183-2.244-4.152-3.938-5.832-0.23-0.229-0.459-0.443-0.688-0.656l-3.176 3.175c0.259 0.199 0.488 0.413 0.716 0.642z" fill="#00679a"/>
		<circle cx="100.8" cy="9.511" r="5.725" fill="#971b1e"/>
	</g></g>
</svg>
